<?xml version="1.0" encoding="UTF-8" standalone="no"?>
<svg width="300px" height="277px" viewBox="0 0 300 277" version="1.1" xmlns="http://www.w3.org/2000/svg" xmlns:xlink="http://www.w3.org/1999/xlink">
    <!-- Generator: Sketch 3.8.3 (29802) - http://www.bohemiancoding.com/sketch -->
    <title>Slice 1</title>
    <desc>Created with Sketch.</desc>
    <defs></defs>
    <g id="Page-1" stroke="none" stroke-width="1" fill="none" fill-rule="evenodd">
        <path d="M187.918656,67.6258073 C241.559556,69.4331801 284.489872,113.487197 284.489872,167.568127 C284.489872,222.796602 239.718347,267.568127 184.489872,267.568127 C154.338337,267.568127 127.303522,254.223863 108.969071,233.118978 L186.554919,155.533131 C194.51355,162.997096 205.2179,167.568127 216.989872,167.568127 C241.566543,167.568127 261.489872,147.644799 261.489872,123.068127 C261.489872,98.491456 241.566543,78.5681274 216.989872,78.5681274 C211.578531,78.5681274 206.392785,79.5340126 201.595633,81.3027843 L187.918656,67.6258073 Z" id="Combined-Shape" fill="#165098" transform="translate(196.729472, 167.596967) rotate(6.000000) translate(-196.729472, -167.596967) "></path>
        <path d="M145.5,260 C176.704088,260 202,234.704088 202,203.5 C202,172.295912 176.704088,147 145.5,147 C114.295912,147 89,172.295912 89,203.5 C89,234.704088 114.295912,260 145.5,260 Z" id="Oval-1-Copy-3" fill="#FFFFFF"></path>
        <path d="M153.5,255 C184.704088,255 210,229.704088 210,198.5 C210,167.295912 184.704088,142 153.5,142 C122.295912,142 97,167.295912 97,198.5 C97,229.704088 122.295912,255 153.5,255 Z" id="Oval-1-Copy-2" fill="#165098"></path>
        <path d="M155.997815,234.364962 C159.514293,234.364962 162.364962,231.514293 162.364962,227.997815 C162.364962,224.481337 159.514293,221.630668 155.997815,221.630668 C152.481337,221.630668 149.630668,224.481337 149.630668,227.997815 C149.630668,231.514293 152.481337,234.364962 155.997815,234.364962 Z" id="Oval-1-Copy-4" fill="#FFFFFF" transform="translate(155.997815, 227.997815) rotate(96.000000) translate(-155.997815, -227.997815) "></path>
        <path d="M153.546329,229.682927 C155.830909,229.682927 157.682927,227.830909 157.682927,225.546329 C157.682927,223.261749 155.830909,221.409731 153.546329,221.409731 C151.261749,221.409731 149.409731,223.261749 149.409731,225.546329 C149.409731,227.830909 151.261749,229.682927 153.546329,229.682927 Z" id="Oval-1-Copy-2" fill="#165098" transform="translate(153.546329, 225.546329) rotate(96.000000) translate(-153.546329, -225.546329) "></path>
        <path d="M130.281183,66.324626 C126.733124,69.3029947 123.070612,72.9686793 121.582717,77.4362323 C119.865915,82.7056539 122.269438,88.0896281 124.558508,92.7862865 C126.847578,97.5974975 129.365555,102.294156 131.540171,107.219919 C133.256973,111.114709 135.660497,115.696815 135.088229,120.049815 C134.630415,123.142737 133.600334,126.121105 133.028067,129.214027 C132.570253,131.275974 134.515962,129.214027 135.202683,128.641264 C139.208555,125.204684 143.557788,121.309894 145.160137,116.040473 C145.961311,113.405762 145.503497,111.000157 144.587869,108.479999 C143.672242,106.074393 142.64216,103.78334 141.612079,101.377735 C139.437462,96.5665237 137.148392,91.7553127 134.859322,86.9441017 C133.943694,85.225812 133.028067,83.3929698 132.226892,81.5601275 C131.425718,79.6127326 130.967904,77.550785 130.85345,75.3742848 C130.738997,73.6559951 130.738997,72.0522581 130.967904,70.3339685 C131.082357,69.0738894 131.425718,67.928363 131.540171,66.6682839 C131.654625,65.9809681 131.082357,65.7518628 130.281183,66.324626 L130.281183,66.324626 Z" id="Shape" fill="#165098"></path>
        <path d="M184.582717,57.4362323 C182.865915,62.7056539 185.269438,68.0896281 187.558508,72.7862865 C189.847578,77.5974975 192.365555,82.2941558 194.540171,87.2199194 C196.256973,91.1147093 198.660497,95.696815 198.088229,100.049815 C197.630415,103.142737 196.600334,106.121105 196.028067,109.214027 C195.570253,111.275974 197.515962,109.214027 198.202683,108.641264 C202.208555,105.204684 206.557788,101.309894 208.160137,96.0404729 C208.961311,93.4057621 208.503497,91.0001566 207.587869,88.4799985 C206.672242,86.074393 205.64216,83.7833402 204.612079,81.3777347 C202.437462,76.5665237 200.148392,71.7553127 197.859322,66.9441017 C196.943694,65.225812 196.028067,63.3929698 195.226892,61.5601275 C194.425718,59.6127326 193.967904,57.550785 193.85345,55.3742848 C193.738997,53.6559951 193.738997,52.0522581 193.967904,50.3339685 C194.082357,49.0738894 194.425718,47.928363 194.540171,46.6682839 C194.654625,45.9809681 194.082357,45.7518628 193.281183,46.324626 C189.733124,49.3029947 186.070612,52.9686793 184.582717,57.4362323 Z" id="Shape" fill="#FFFFFF"></path>
        <path d="M174.582717,77.4362323 C172.865915,82.7056539 175.269438,88.0896281 177.558508,92.7862865 C179.847578,97.5974975 182.365555,102.294156 184.540171,107.219919 C186.256973,111.114709 188.660497,115.696815 188.088229,120.049815 C187.630415,123.142737 186.600334,126.121105 186.028067,129.214027 C185.570253,131.275974 187.515962,129.214027 188.202683,128.641264 C192.208555,125.204684 196.557788,121.309894 198.160137,116.040473 C198.961311,113.405762 198.503497,111.000157 197.587869,108.479999 C196.672242,106.074393 195.64216,103.78334 194.612079,101.377735 C192.437462,96.5665237 190.148392,91.7553127 187.859322,86.9441017 C186.943694,85.225812 186.028067,83.3929698 185.226892,81.5601275 C184.425718,79.6127326 183.967904,77.550785 183.85345,75.3742848 C183.738997,73.6559951 183.738997,72.0522581 183.967904,70.3339685 C184.082357,69.0738894 184.425718,67.928363 184.540171,66.6682839 C184.654625,65.9809681 184.082357,65.7518628 183.281183,66.324626 C179.733124,69.3029947 176.070612,72.9686793 174.582717,77.4362323 Z" id="Shape" fill="#165098"></path>
        <path d="M156.317881,57.5084618 C152.312009,60.8304884 147.962776,64.8398309 145.559252,69.5364893 C143.84245,72.8585159 143.613543,76.2950952 144.529171,79.7316745 C145.673706,83.8555696 147.276055,87.9794648 148.992857,91.9888073 C152.312009,99.6638343 156.661241,106.880651 159.865939,114.67023 C161.010474,117.419494 162.269463,120.512415 162.49837,123.605337 C162.727277,127.385574 161.468288,131.394916 160.438207,134.946048 C160.2093,135.977022 159.522579,137.351654 159.637032,138.382628 C159.751486,139.184496 160.2093,138.840838 160.667114,138.49718 C162.612823,137.007996 164.558533,135.289706 166.275335,133.571417 C170.967928,129.103863 176.347243,123.147126 175.889429,116.159415 C175.660522,113.295599 174.28708,110.546335 173.142545,107.911625 C171.883556,104.818703 170.510114,101.840335 169.136672,98.8619658 C166.618695,93.2488863 163.986265,87.7503595 161.239381,82.2518326 C160.323753,80.3044377 159.179218,78.4715954 158.492497,76.5242005 C157.462416,73.8894897 157.004602,71.1402263 156.890148,68.3909629 C156.775695,66.3290153 156.890148,64.1525151 157.119055,62.0905675 C157.233509,60.7159358 157.691323,59.4558567 157.691323,58.081225 C158.034683,56.821146 157.347962,56.7065933 156.317881,57.5084618 L156.317881,57.5084618 Z" id="Shape" fill="#5C9DD5"></path>
        <path d="M156.317881,57.5084618 C152.312009,60.8304884 147.962776,64.8398309 145.559252,69.5364893 C143.84245,72.8585159 143.613543,76.2950952 144.529171,79.7316745 C145.673706,83.8555696 147.276055,87.9794648 148.992857,91.9888073 C152.312009,99.6638343 156.661241,106.880651 159.865939,114.67023 C161.010474,117.419494 162.269463,120.512415 162.49837,123.605337 C162.727277,127.385574 161.468288,131.394916 160.438207,134.946048 C160.2093,135.977022 159.522579,137.351654 159.637032,138.382628 C159.751486,139.184496 160.2093,138.840838 160.667114,138.49718 C162.612823,137.007996 164.558533,135.289706 166.275335,133.571417 C170.967928,129.103863 176.347243,123.147126 175.889429,116.159415 C175.660522,113.295599 174.28708,110.546335 173.142545,107.911625 C171.883556,104.818703 170.510114,101.840335 169.136672,98.8619658 C166.618695,93.2488863 163.986265,87.7503595 161.239381,82.2518326 C160.323753,80.3044377 159.179218,78.4715954 158.492497,76.5242005 C157.462416,73.8894897 157.004602,71.1402263 156.890148,68.3909629 C156.775695,66.3290153 156.890148,64.1525151 157.119055,62.0905675 C157.233509,60.7159358 157.691323,59.4558567 157.691323,58.081225 C158.034683,56.821146 157.347962,56.7065933 156.317881,57.5084618 L156.317881,57.5084618 Z" id="Shape" fill="#4BA2F2"></path>
    </g>
</svg>